# xmcd
#
# Track frame offsets:
#	150
#	13283
#	27299
#	41174
#	53880
#	70035
#	83451
#	101996
#	116168
#	132167
#	143893
#	161522
#	174207
#	191222
#	205656
#
# Disc length: 2911 seconds
# Revision: 0
# Processed by: cddbd v1.5.2PL0 Copyright (c) Steve Scherf et al.
# Submitted via: dBpowerAMP V12.0
#
DISCID=d00b5d0f
DTITLE=Truck Stop - Die Lady und der Tramp
DYEAR=2015
DGENRE=Country
TTITLE0=Country made in Germany
TTITLE1=Cowboys und Texasboots
TTITLE2=Rocky Mountains
TTITLE3=Lass doch mal den Cowboy ran
TTITLE4=Keinen Spass ohne Dich
TTITLE5=Hinnerk, der Supertrucker
TTITLE6=Die Freiheit ist noch weit
TTITLE7=Dann kommt Country-Musik
TTITLE8=Meine Frau macht Nachtschicht
TTITLE9=Bin eifersüchtig
TTITLE10=Eddies Big Truck
TTITLE11=Cops and Trucker
TTITLE12=Der Kaffee muss schwarz sein
TTITLE13=Von Arizona bis Old Texas Town
TTITLE14=Echte Cowboys weinen nie
EXTD=
EXTT0=
EXTT1=
EXTT2=
EXTT3=
EXTT4=
EXTT5=
EXTT6=
EXTT7=
EXTT8=
EXTT9=
EXTT10=
EXTT11=
EXTT12=
EXTT13=
EXTT14=
PLAYORDER=
